<?xml version="1.0" encoding="utf-8"?>
<!-- Svg Vector Icons : http://www.onlinewebfonts.com/icon -->
<!DOCTYPE svg PUBLIC "-//W3C//DTD SVG 1.1//EN" "http://www.w3.org/Graphics/SVG/1.1/DTD/svg11.dtd">
<svg version="1.1" xmlns="http://www.w3.org/2000/svg" xmlns:xlink="http://www.w3.org/1999/xlink" x="0px" y="0px" viewBox="0 0 1000 1000" enable-background="new 0 0 1000 1000" xml:space="preserve">
<metadata> Svg Vector Icons : http://www.onlinewebfonts.com/icon </metadata>
<g><path d="M350.8,544.5c-22.3,0-40.1,2.2-51.2,4.5v173.7h37.9v-62.4c4.5,0,8.9,0,13.4,0c22.3,0,40.1-6.7,53.5-17.8c8.9-8.9,15.6-24.5,15.6-42.3c0-17.8-6.7-31.2-17.8-40.1C390.9,549,375.3,544.5,350.8,544.5z M350.8,629.2c-4.5,0-8.9,0-13.4,0V578c2.2,0,8.9-2.2,15.6-2.2c17.8,0,29,8.9,29,26.7C382,618,370.8,629.2,350.8,629.2z M484.4,544.5c-17.8,0-37.9,2.2-51.2,4.5v173.7c8.9,2.2,22.3,2.2,42.3,2.2c33.4,0,57.9-6.7,75.7-22.3c15.6-13.4,26.7-37.9,26.7-71.3c0-31.2-11.1-53.5-29-66.8C535.6,551.2,515.6,544.5,484.4,544.5z M484.4,693.8c-4.5,0-8.9,0-13.4,0V578c2.2,0,8.9-2.2,17.8-2.2c31.2,0,51.2,20,51.2,55.7C540.1,673.7,517.8,693.8,484.4,693.8z M613.6,722.7h37.9v-71.3h60.1V618h-60.1V578h62.4v-33.4H613.6V722.7z M678.2,10h-66.8H188.2c-49,0-89.1,40.1-89.1,89.1v801.8c0,49,40.1,89.1,89.1,89.1h623.6c49,0,89.1-40.1,89.1-89.1V299.5V255L678.2,10z M856.4,900.9c0,24.5-20,44.5-44.5,44.5H188.2c-24.5,0-44.5-20-44.5-44.5V99.1c0-24.5,20-44.5,44.5-44.5h400.9v222.7c0,24.5,20,44.5,44.5,44.5h222.7V900.9z M633.6,277.3V54.5h22.3l200.5,222.7H633.6z"/></g>
</svg>